<svg width="32" height="32" viewBox="0 0 32 32" fill="none" xmlns="http://www.w3.org/2000/svg">
<path d="M20.3284 1.63393C20.1184 2.04365 20 2.508 20 3C20 4.12878 20.6234 5.11196 21.5447 5.62401C21.1998 6.16622 21 6.80978 21 7.5C21 9.43299 22.567 11 24.5 11C25.0631 11 25.5952 10.867 26.0664 10.6308C26.3562 11.9847 27.5595 13 29 13C29.5877 13 30.1359 12.831 30.5987 12.539C30.8611 13.65 31 14.8088 31 16C31 24.2843 24.2843 31 16 31C7.71573 31 1 24.2843 1 16C1 7.71573 7.71573 1 16 1C17.5048 1 18.9579 1.22159 20.3284 1.63393Z" fill="#F6CF86"/>
<ellipse cx="7" cy="18" rx="2" ry="1" fill="#FA8475"/>
<ellipse cx="26" cy="18" rx="2" ry="1" fill="#FA8475"/>
<path fill-rule="evenodd" clip-rule="evenodd" d="M1.07406 14.5C1.02508 14.9934 1 15.4938 1 16C1 24.2843 7.71573 31 16 31C24.2843 31 31 24.2843 31 16C31 15.4937 30.9749 14.9934 30.9259 14.5C30.1733 22.08 23.778 28 16 28C8.22198 28 1.82665 22.08 1.07406 14.5Z" fill="#E9AC71"/>
<circle cx="23" cy="14" r="2" fill="#52565F"/>
<rect x="23" y="13" width="1" height="1" rx="0.5" fill="white"/>
<rect x="24" y="6" width="3" height="3" rx="1.5" fill="#F6CF86"/>
<rect x="24" y="1" width="2" height="2" rx="1" fill="#F6CF86"/>
<rect x="29" y="6" width="2" height="2" rx="1" fill="#F6CF86"/>
<rect x="12" y="4" width="3" height="3" rx="1.5" fill="#B6663C"/>
<rect x="23" y="23" width="2" height="2" rx="1" fill="#B6663C"/>
<rect x="8" y="22" width="3" height="3" rx="1.5" fill="#B6663C"/>
<rect x="17" y="21" width="2" height="2" rx="1" fill="#B6663C"/>
<rect x="4" y="9" width="2" height="2" rx="1" fill="#B6663C"/>
<rect x="19" y="8" width="2" height="2" rx="1" fill="#B6663C"/>
<rect x="13" y="27" width="2" height="2" rx="1" fill="#B6663C"/>
<path d="M8 12.5L11 14.5L8 16" stroke="#52565F" stroke-width="2" stroke-linecap="round" stroke-linejoin="round"/>
<path d="M18.9701 17.2425C19.1041 16.7067 18.7783 16.1638 18.2425 16.0299C17.7067 15.8959 17.1638 16.2217 17.0299 16.7575L18.9701 17.2425ZM14.9701 16.7575C14.8362 16.2217 14.2933 15.8959 13.7575 16.0299C13.2217 16.1638 12.8959 16.7067 13.0299 17.2425L14.9701 16.7575ZM17.0299 16.7575C16.9354 17.1351 16.763 17.4777 16.5574 17.7064C16.3615 17.9242 16.1776 18 16 18V20C16.875 20 17.5661 19.5758 18.0446 19.0436C18.5133 18.5223 18.8146 17.8649 18.9701 17.2425L17.0299 16.7575ZM16 18C15.8224 18 15.6385 17.9242 15.4426 17.7064C15.237 17.4777 15.0646 17.1351 14.9701 16.7575L13.0299 17.2425C13.1854 17.8649 13.4867 18.5223 13.9554 19.0436C14.4339 19.5758 15.125 20 16 20V18Z" fill="#52565F"/>
</svg>
