<svg width="32" height="32" viewBox="0 0 32 32" fill="none" xmlns="http://www.w3.org/2000/svg">
<rect x="1" y="1" width="30" height="30" rx="15" fill="#FFD663"/>
<path fill-rule="evenodd" clip-rule="evenodd" d="M1.07406 14.5C1.02508 14.9934 1 15.4938 1 16C1 24.2843 7.71573 31 16 31C24.2843 31 31 24.2843 31 16C31 15.4937 30.9749 14.9934 30.9259 14.5C30.1733 22.08 23.778 28 16 28C8.22198 28 1.82665 22.08 1.07406 14.5Z" fill="#FFD04C"/>
<path fill-rule="evenodd" clip-rule="evenodd" d="M12.6489 20.9363C13.166 21.1302 13.7424 20.8682 13.9363 20.3511C14.1836 19.6917 14.8886 19 16 19C17.1114 19 17.8164 19.6917 18.0637 20.3511C18.2576 20.8682 18.834 21.1302 19.3511 20.9363C19.8682 20.7424 20.1302 20.166 19.9363 19.6488C19.4336 18.3083 18.0465 17 16 17C13.9535 17 12.5664 18.3083 12.0637 19.6488C11.8697 20.166 12.1318 20.7424 12.6489 20.9363Z" fill="#52565F"/>
<path fill-rule="evenodd" clip-rule="evenodd" d="M11 30.1465C8.18686 29.1522 5.75888 27.3425 4 25.0015V14.0556H9L11 13V30.1465Z" fill="#9FCBF6"/>
<path fill-rule="evenodd" clip-rule="evenodd" d="M21 30.1465C23.8131 29.1522 26.2411 27.3425 28 25.0015V14.0556H23L21 13V30.1465Z" fill="#9FCBF6"/>
<path fill-rule="evenodd" clip-rule="evenodd" d="M11.4472 11.1055C11.9412 11.3525 12.1414 11.9532 11.8944 12.4472L11.4472 13.3416C10.939 14.358 9.90025 15 8.76393 15H5C4.44772 15 4 14.5523 4 14C4 13.4477 4.44772 13 5 13H8.76393C9.1427 13 9.48897 12.786 9.65836 12.4472L10.1056 11.5528C10.3526 11.0588 10.9532 10.8586 11.4472 11.1055Z" fill="#52565F"/>
<path fill-rule="evenodd" clip-rule="evenodd" d="M20.5528 11.1055C20.0588 11.3525 19.8586 11.9532 20.1056 12.4472L20.5528 13.3416C21.061 14.358 22.0998 15 23.2361 15H27C27.5523 15 28 14.5523 28 14C28 13.4477 27.5523 13 27 13H23.2361C22.8573 13 22.511 12.786 22.3416 12.4472L21.8944 11.5528C21.6474 11.0588 21.0468 10.8586 20.5528 11.1055Z" fill="#52565F"/>
</svg>
