<svg width="32" height="32" viewBox="0 0 32 32" fill="none" xmlns="http://www.w3.org/2000/svg">
<rect x="1" y="1" width="30" height="30" rx="15" fill="#FFD663"/>
<path fill-rule="evenodd" clip-rule="evenodd" d="M1.07406 14.5C1.02508 14.9934 1 15.4938 1 16C1 24.2843 7.71573 31 16 31C24.2843 31 31 24.2843 31 16C31 15.4937 30.9749 14.9934 30.9259 14.5C30.1733 22.08 23.778 28 16 28C8.22198 28 1.82665 22.08 1.07406 14.5Z" fill="#FFD04C"/>
<path fill-rule="evenodd" clip-rule="evenodd" d="M11.6838 22.9487C12.2077 23.1233 12.774 22.8401 12.9487 22.3162C13.3511 21.109 14.4356 20 16 20C17.5644 20 18.6489 21.109 19.0513 22.3162C19.226 22.8401 19.7923 23.1233 20.3162 22.9487C20.8402 22.774 21.1233 22.2077 20.9487 21.6837C20.3511 19.8909 18.6461 18 16 18C13.3539 18 11.6489 19.8909 11.0513 21.6837C10.8767 22.2077 11.1598 22.774 11.6838 22.9487Z" fill="#52565F"/>
<circle cx="11" cy="13" r="2" fill="#52565F"/>
<path fill-rule="evenodd" clip-rule="evenodd" d="M7.05131 10.6838C7.22596 10.1599 7.79228 9.8767 8.31622 10.0513L14.3162 12.0513C14.8402 12.226 15.1233 12.7923 14.9487 13.3163C14.774 13.8402 14.2077 14.1234 13.6838 13.9487L7.68377 11.9487C7.15983 11.7741 6.87667 11.2077 7.05131 10.6838Z" fill="#52565F"/>
<circle cx="21" cy="13" r="2" fill="#52565F"/>
<path fill-rule="evenodd" clip-rule="evenodd" d="M24.9487 10.6838C24.774 10.1599 24.2077 9.8767 23.6838 10.0513L17.6838 12.0513C17.1598 12.226 16.8767 12.7923 17.0513 13.3163C17.226 13.8402 17.7923 14.1234 18.3162 13.9487L24.3162 11.9487C24.8402 11.7741 25.1233 11.2077 24.9487 10.6838Z" fill="#52565F"/>
<path fill-rule="evenodd" clip-rule="evenodd" d="M6.35357 15.6465C6.48748 15.7804 6.53424 15.9785 6.47436 16.1581L5.79058 18.2094L7.8419 17.5257C8.02157 17.4658 8.21965 17.5125 8.35357 17.6465C8.48748 17.7804 8.53424 17.9785 8.47436 18.1581L7.47436 21.1581C7.38703 21.4201 7.10387 21.5617 6.8419 21.4744C6.57993 21.387 6.43835 21.1039 6.52567 20.8419L7.20944 18.7906L5.15813 19.4744C4.97846 19.5342 4.78038 19.4875 4.64646 19.3536C4.51254 19.2197 4.46578 19.0216 4.52567 18.8419L5.20944 16.7906L3.15813 17.4744C2.89616 17.5617 2.613 17.4201 2.52567 17.1581C2.43835 16.8962 2.57993 16.613 2.8419 16.5257L5.8419 15.5257C6.02157 15.4658 6.21965 15.5125 6.35357 15.6465Z" fill="#FB9C74"/>
<path fill-rule="evenodd" clip-rule="evenodd" d="M25.6464 15.6465C25.5125 15.7804 25.4658 15.9785 25.5256 16.1581L26.2094 18.2094L24.1581 17.5257C23.9784 17.4658 23.7803 17.5125 23.6464 17.6465C23.5125 17.7804 23.4658 17.9785 23.5256 18.1581L24.5256 21.1581C24.613 21.4201 24.8961 21.5617 25.1581 21.4744C25.4201 21.387 25.5617 21.1039 25.4743 20.8419L24.7906 18.7906L26.8419 19.4744C27.0215 19.5342 27.2196 19.4875 27.3535 19.3536C27.4875 19.2197 27.5342 19.0216 27.4743 18.8419L26.7906 16.7906L28.8419 17.4744C29.1038 17.5617 29.387 17.4201 29.4743 17.1581C29.5617 16.8962 29.4201 16.613 29.1581 16.5257L26.1581 15.5257C25.9784 15.4658 25.7803 15.5125 25.6464 15.6465Z" fill="#FB9C74"/>
</svg>
