<svg width="32" height="32" viewBox="0 0 32 32" fill="none" xmlns="http://www.w3.org/2000/svg">
<path d="M1 16C1 7.71573 7.71573 1 16 1C24.2843 1 31 7.71573 31 16C31 24.2843 24.2843 31 16 31C7.71573 31 1 24.2843 1 16Z" fill="#FF2D67"/>
<path fill-rule="evenodd" clip-rule="evenodd" d="M1.07406 14.5C1.02508 14.9934 1 15.4937 1 16C1 24.2843 7.71573 31 16 31C24.2843 31 31 24.2843 31 16C31 15.4937 30.9749 14.9934 30.9259 14.5C30.1734 22.08 23.778 28 16 28C8.22198 28 1.82665 22.08 1.07406 14.5Z" fill="#F70044"/>
<path fill-rule="evenodd" clip-rule="evenodd" d="M7.19999 9.4C7.53136 8.95817 8.15816 8.86863 8.59999 9.2L12.6 12.2C12.9086 12.4315 13.0566 12.8198 12.9802 13.1979C12.9038 13.5761 12.6168 13.8766 12.2425 13.9701L8.24253 14.9701C7.70673 15.1041 7.1638 14.7783 7.02985 14.2425C6.8959 13.7067 7.22166 13.1638 7.75746 13.0299L9.71922 12.5394L7.39999 10.8C6.95816 10.4686 6.86862 9.84183 7.19999 9.4Z" fill="black"/>
<path fill-rule="evenodd" clip-rule="evenodd" d="M24.8 9.4C24.4686 8.95817 23.8418 8.86863 23.4 9.2L19.4 12.2C19.0914 12.4315 18.9434 12.8198 19.0198 13.1979C19.0962 13.5761 19.3832 13.8766 19.7575 13.9701L23.7575 14.9701C24.2933 15.1041 24.8362 14.7783 24.9702 14.2425C25.1041 13.7067 24.7783 13.1638 24.2425 13.0299L22.2808 12.5394L24.6 10.8C25.0418 10.4686 25.1314 9.84183 24.8 9.4Z" fill="black"/>
<path fill-rule="evenodd" clip-rule="evenodd" d="M10 18.5858L13 21.5858L16 18.5858L19 21.5858L22 18.5858L25.7071 22.2929C26.0976 22.6834 26.0976 23.3166 25.7071 23.7071C25.3166 24.0977 24.6834 24.0977 24.2929 23.7071L22 21.4142L19 24.4142L16 21.4142L13 24.4142L10 21.4142L7.70711 23.7071C7.31658 24.0977 6.68342 24.0977 6.29289 23.7071C5.90237 23.3166 5.90237 22.6834 6.29289 22.2929L10 18.5858Z" fill="black"/>
<path fill-rule="evenodd" clip-rule="evenodd" d="M19.3162 7.05134C19.8402 7.22599 20.1233 7.79231 19.9487 8.31626L18.9487 11.3163C18.774 11.8402 18.2077 12.1234 17.6838 11.9487C17.1598 11.7741 16.8767 11.2077 17.0513 10.6838L18.0513 7.6838C18.226 7.15986 18.7923 6.8767 19.3162 7.05134Z" fill="#CA0038"/>
<path fill-rule="evenodd" clip-rule="evenodd" d="M12.6838 7.05134C12.1598 7.22599 11.8767 7.79231 12.0513 8.31625L13.0513 11.3163C13.226 11.8402 13.7923 12.1234 14.3162 11.9487C14.8402 11.7741 15.1233 11.2077 14.9487 10.6838L13.9487 7.6838C13.774 7.15986 13.2077 6.8767 12.6838 7.05134Z" fill="#CA0038"/>
</svg>
