<svg width="36" height="25" viewBox="0 0 36 25" fill="none" xmlns="http://www.w3.org/2000/svg">
<rect width="36" height="25" rx="12.5" fill="#3A3A3A"/>
<path d="M19.6737 11.5771L17.652 11.4096C17.5185 10.9174 17.3223 10.4445 17.0683 10.0023L18.3813 8.45061C18.4389 8.38251 18.4689 8.29522 18.4652 8.20607C18.4615 8.11692 18.4244 8.03241 18.3614 7.96931L16.8488 6.45994C16.7857 6.39686 16.7012 6.3598 16.612 6.35611C16.5229 6.35242 16.4356 6.38237 16.3675 6.44002L14.8162 7.75267C14.3738 7.49801 13.9008 7.30088 13.4085 7.16606L13.241 5.14444C13.2335 5.05531 13.1928 4.97224 13.1269 4.91178C13.061 4.85133 12.9747 4.81793 12.8852 4.81824H10.7509C10.6614 4.81793 10.5751 4.85133 10.5092 4.91178C10.4433 4.97224 10.4025 5.05531 10.3951 5.14444L10.2276 7.16606C9.73543 7.29961 9.26247 7.4958 8.8203 7.74982L7.2686 6.43824C7.2005 6.38059 7.11322 6.35064 7.02407 6.35433C6.93492 6.35802 6.85041 6.39508 6.7873 6.45816L5.27793 7.96931C5.21485 8.03241 5.1778 8.11692 5.17411 8.20607C5.17042 8.29522 5.20036 8.38251 5.25801 8.45061L6.57066 10.002C6.316 10.4443 6.11888 10.9173 5.98406 11.4096L3.96244 11.5771C3.8733 11.5846 3.79023 11.6253 3.72978 11.6912C3.66932 11.7571 3.63592 11.8434 3.63623 11.9329V14.0672C3.63592 14.1567 3.66932 14.243 3.72978 14.3089C3.79023 14.3748 3.8733 14.4156 3.96244 14.423L5.98548 14.592C6.11903 15.0841 6.31522 15.5571 6.56924 15.9992L5.25623 17.5495C5.19859 17.6176 5.16864 17.7049 5.17233 17.794C5.17602 17.8832 5.21308 17.9677 5.27615 18.0308L6.78552 19.5402C6.84861 19.6031 6.93305 19.6401 7.02211 19.6438C7.11118 19.6475 7.19839 19.6176 7.26647 19.5601L8.81817 18.2474C9.26099 18.5024 9.73465 18.6995 10.2276 18.834L10.3951 20.8557C10.4025 20.9448 10.4433 21.0279 10.5092 21.0883C10.5751 21.1488 10.6614 21.1822 10.7509 21.1819H12.8852C12.9747 21.1822 13.061 21.1488 13.1269 21.0883C13.1928 21.0279 13.2335 20.9448 13.241 20.8557L13.4103 18.8312C13.9022 18.6972 14.375 18.5009 14.8172 18.2471L16.3689 19.5601C16.437 19.6177 16.5243 19.6477 16.6135 19.644C16.7026 19.6403 16.7871 19.6032 16.8502 19.5402L18.3596 18.0308C18.4227 17.9677 18.4597 17.8832 18.4634 17.794C18.4671 17.7049 18.4372 17.6176 18.3795 17.5495L17.0669 15.9982C17.321 15.5558 17.5177 15.0827 17.652 14.5905L19.6737 14.423C19.7628 14.4156 19.8459 14.3748 19.9063 14.3089C19.9668 14.243 20.0002 14.1567 19.9999 14.0672V11.9329C20.0002 11.8434 19.9668 11.7571 19.9063 11.6912C19.8459 11.6253 19.7628 11.5846 19.6737 11.5771ZM11.818 15.4902C11.3255 15.4902 10.8441 15.3441 10.4346 15.0705C10.0251 14.7969 9.70595 14.408 9.51748 13.953C9.32901 13.498 9.2797 12.9973 9.37578 12.5143C9.47186 12.0312 9.70902 11.5875 10.0573 11.2393C10.4055 10.891 10.8492 10.6539 11.3323 10.5578C11.8153 10.4617 12.316 10.511 12.771 10.6995C13.226 10.888 13.6149 11.2071 13.8885 11.6166C14.1621 12.0261 14.3082 12.5076 14.3082 13.0001C14.3082 13.6605 14.0458 14.2938 13.5788 14.7608C13.1118 15.2278 12.4785 15.4902 11.818 15.4902V15.4902Z" fill="white"/>
<path d="M27 16L23.5359 10L30.4641 10L27 16Z" fill="white"/>
</svg>
