<svg width="66" height="66" viewBox="0 0 66 66" fill="none" xmlns="http://www.w3.org/2000/svg">
<rect width="66" height="66" rx="33" fill="#C4C4C4"/>
<path d="M25.03 42.24C24.53 42.24 24.12 42.11 23.8 41.85C23.48 41.57 23.29 41.23 23.23 40.83C23.19 40.41 23.33 39.99 23.65 39.57L30.52 30.42V32.07L23.98 23.31C23.66 22.87 23.52 22.45 23.56 22.05C23.6 21.63 23.78 21.29 24.1 21.03C24.42 20.75 24.82 20.61 25.3 20.61C25.7 20.61 26.05 20.71 26.35 20.91C26.67 21.09 26.99 21.4 27.31 21.84L32.71 29.28H31.48L36.85 21.84C37.17 21.4 37.48 21.09 37.78 20.91C38.1 20.71 38.47 20.61 38.89 20.61C39.39 20.61 39.8 20.74 40.12 21C40.44 21.26 40.62 21.6 40.66 22.02C40.7 22.42 40.55 22.85 40.21 23.31L33.67 32.07V30.42L40.51 39.57C40.83 39.99 40.97 40.41 40.93 40.83C40.89 41.23 40.71 41.57 40.39 41.85C40.07 42.11 39.65 42.24 39.13 42.24C38.75 42.24 38.4 42.14 38.08 41.94C37.78 41.74 37.46 41.42 37.12 40.98L31.42 33.18H32.74L27.07 40.98C26.75 41.42 26.43 41.74 26.11 41.94C25.79 42.14 25.43 42.24 25.03 42.24Z" fill="black"/>
</svg>
