<svg width="32" height="32" viewBox="0 0 32 32" fill="none" xmlns="http://www.w3.org/2000/svg">
<rect x="1" y="1" width="30" height="30" rx="15" fill="#FFD663"/>
<path fill-rule="evenodd" clip-rule="evenodd" d="M1.07406 14.5C1.02508 14.9934 1 15.4938 1 16C1 24.2843 7.71573 31 16 31C24.2843 31 31 24.2843 31 16C31 15.4937 30.9749 14.9934 30.9259 14.5C30.1733 22.08 23.778 28 16 28C8.22198 28 1.82665 22.08 1.07406 14.5Z" fill="#FFD04C"/>
<circle cx="5.5" cy="16.5" r="2.5" fill="#FF759B" fill-opacity="0.2"/>
<circle cx="26.5" cy="16.5" r="2.5" fill="#FF759B" fill-opacity="0.2"/>
<path fill-rule="evenodd" clip-rule="evenodd" d="M11.6838 19.0513C12.2077 18.8767 12.774 19.1599 12.9487 19.6838C13.3511 20.891 14.4356 22 16 22C17.5644 22 18.6489 20.891 19.0513 19.6838C19.226 19.1599 19.7923 18.8767 20.3162 19.0513C20.8402 19.226 21.1233 19.7923 20.9487 20.3163C20.3511 22.1091 18.6461 24 16 24C13.3539 24 11.6489 22.1091 11.0513 20.3163C10.8767 19.7923 11.1598 19.226 11.6838 19.0513Z" fill="#52565F"/>
<circle cx="11" cy="13" r="2" fill="#52565F"/>
<circle cx="21" cy="13" r="2" fill="#52565F"/>
</svg>
