<svg width="32" height="32" viewBox="0 0 32 32" fill="none" xmlns="http://www.w3.org/2000/svg">
<rect x="1" y="1" width="30" height="30" rx="15" fill="#FFD663"/>
<path fill-rule="evenodd" clip-rule="evenodd" d="M1.07406 14.5C1.02508 14.9934 1 15.4938 1 16C1 24.2843 7.71573 31 16 31C24.2843 31 31 24.2843 31 16C31 15.4937 30.9749 14.9934 30.9259 14.5C30.1733 22.08 23.778 28 16 28C8.22198 28 1.82665 22.08 1.07406 14.5Z" fill="#FFD04C"/>
<circle cx="5.5" cy="12.5" r="2.5" fill="#FF759B" fill-opacity="0.2"/>
<circle cx="26.5" cy="12.5" r="2.5" fill="#FF759B" fill-opacity="0.2"/>
<mask id="path-5-inside-1_1_13682" fill="white">
<path fill-rule="evenodd" clip-rule="evenodd" d="M11 9.77778C10.2899 9.77778 9.71429 10.3747 9.71429 11.1111C9.71429 11.602 9.33053 12 8.85714 12C8.38376 12 8 11.602 8 11.1111C8 9.39289 9.34315 8 11 8C12.6569 8 14 9.39289 14 11.1111C14 11.602 13.6162 12 13.1429 12C12.6695 12 12.2857 11.602 12.2857 11.1111C12.2857 10.3747 11.7101 9.77778 11 9.77778Z"/>
</mask>
<path fill-rule="evenodd" clip-rule="evenodd" d="M11 9.77778C10.2899 9.77778 9.71429 10.3747 9.71429 11.1111C9.71429 11.602 9.33053 12 8.85714 12C8.38376 12 8 11.602 8 11.1111C8 9.39289 9.34315 8 11 8C12.6569 8 14 9.39289 14 11.1111C14 11.602 13.6162 12 13.1429 12C12.6695 12 12.2857 11.602 12.2857 11.1111C12.2857 10.3747 11.7101 9.77778 11 9.77778Z" fill="#52565F"/>
<path d="M11.7143 11.1111C11.7143 11.4101 11.4624 11.7778 11 11.7778V7.77778C9.11742 7.77778 7.71429 9.33934 7.71429 11.1111H11.7143ZM8.85714 14C10.503 14 11.7143 12.6374 11.7143 11.1111H7.71429C7.71429 10.5666 8.15803 10 8.85714 10V14ZM6 11.1111C6 12.6374 7.21125 14 8.85714 14V10C9.55626 10 10 10.5666 10 11.1111H6ZM11 6C8.17064 6 6 8.3575 6 11.1111H10C10 10.4283 10.5156 10 11 10V6ZM16 11.1111C16 8.3575 13.8294 6 11 6V10C11.4844 10 12 10.4283 12 11.1111H16ZM13.1429 14C14.7887 14 16 12.6374 16 11.1111H12C12 10.5666 12.4437 10 13.1429 10V14ZM10.2857 11.1111C10.2857 12.6374 11.497 14 13.1429 14V10C13.842 10 14.2857 10.5666 14.2857 11.1111H10.2857ZM11 11.7778C10.5376 11.7778 10.2857 11.4101 10.2857 11.1111H14.2857C14.2857 9.33934 12.8826 7.77778 11 7.77778V11.7778Z" fill="#52565F" mask="url(#path-5-inside-1_1_13682)"/>
<mask id="path-7-inside-2_1_13682" fill="white">
<path fill-rule="evenodd" clip-rule="evenodd" d="M21 9.77778C20.2899 9.77778 19.7143 10.3747 19.7143 11.1111C19.7143 11.602 19.3305 12 18.8571 12C18.3838 12 18 11.602 18 11.1111C18 9.39289 19.3431 8 21 8C22.6569 8 24 9.39289 24 11.1111C24 11.602 23.6162 12 23.1429 12C22.6695 12 22.2857 11.602 22.2857 11.1111C22.2857 10.3747 21.7101 9.77778 21 9.77778Z"/>
</mask>
<path fill-rule="evenodd" clip-rule="evenodd" d="M21 9.77778C20.2899 9.77778 19.7143 10.3747 19.7143 11.1111C19.7143 11.602 19.3305 12 18.8571 12C18.3838 12 18 11.602 18 11.1111C18 9.39289 19.3431 8 21 8C22.6569 8 24 9.39289 24 11.1111C24 11.602 23.6162 12 23.1429 12C22.6695 12 22.2857 11.602 22.2857 11.1111C22.2857 10.3747 21.7101 9.77778 21 9.77778Z" fill="#52565F"/>
<path d="M21.7143 11.1111C21.7143 11.4101 21.4624 11.7778 21 11.7778V7.77778C19.1174 7.77778 17.7143 9.33934 17.7143 11.1111H21.7143ZM18.8571 14C20.503 14 21.7143 12.6374 21.7143 11.1111H17.7143C17.7143 10.5666 18.158 10 18.8571 10V14ZM16 11.1111C16 12.6374 17.2113 14 18.8571 14V10C19.5563 10 20 10.5666 20 11.1111H16ZM21 6C18.1706 6 16 8.3575 16 11.1111H20C20 10.4283 20.5156 10 21 10V6ZM26 11.1111C26 8.3575 23.8294 6 21 6V10C21.4844 10 22 10.4283 22 11.1111H26ZM23.1429 14C24.7887 14 26 12.6374 26 11.1111H22C22 10.5666 22.4437 10 23.1429 10V14ZM20.2857 11.1111C20.2857 12.6374 21.497 14 23.1429 14V10C23.842 10 24.2857 10.5666 24.2857 11.1111H20.2857ZM21 11.7778C20.5376 11.7778 20.2857 11.4101 20.2857 11.1111H24.2857C24.2857 9.33934 22.8826 7.77778 21 7.77778V11.7778Z" fill="#52565F" mask="url(#path-7-inside-2_1_13682)"/>
<path fill-rule="evenodd" clip-rule="evenodd" d="M6.55279 16.1055C7.04677 15.8586 7.64744 16.0588 7.89443 16.5528C8.66158 18.087 11.4754 20 16 20C20.5246 20 23.3384 18.087 24.1056 16.5528C24.3526 16.0588 24.9532 15.8586 25.4472 16.1055C25.9412 16.3525 26.1414 16.9532 25.8944 17.4472C24.6616 19.9129 20.9491 22 16 22C11.0509 22 7.33843 19.9129 6.10558 17.4472C5.85859 16.9532 6.05881 16.3525 6.55279 16.1055Z" fill="#52565F"/>
</svg>
