<svg width="32" height="32" viewBox="0 0 32 32" fill="none" xmlns="http://www.w3.org/2000/svg">
<rect x="1" y="1" width="30" height="30" rx="15" fill="#FFD663"/>
<path fill-rule="evenodd" clip-rule="evenodd" d="M1.07406 14.5C1.02508 14.9934 1 15.4938 1 16C1 24.2843 7.71573 31 16 31C24.2843 31 31 24.2843 31 16C31 15.4937 30.9749 14.9934 30.9259 14.5C30.1733 22.08 23.778 28 16 28C8.22198 28 1.82665 22.08 1.07406 14.5Z" fill="#FFD04C"/>
<circle cx="5.5" cy="18.5" r="2.5" fill="#FF759B" fill-opacity="0.2"/>
<circle cx="26.5" cy="18.5" r="2.5" fill="#FF759B" fill-opacity="0.2"/>
<path fill-rule="evenodd" clip-rule="evenodd" d="M24.4289 20.0966C24.9278 20.3335 25.1402 20.93 24.9033 21.4289C24.0071 23.3165 22.6175 24.3049 21.2247 24.7311C19.8714 25.1452 18.5509 25.0204 17.7074 24.7623C17.1793 24.6007 16.8822 24.0416 17.0438 23.5134C17.2054 22.9853 17.7645 22.6882 18.2926 22.8498C18.8076 23.0074 19.7173 23.1008 20.6395 22.8187C21.5222 22.5485 22.4533 21.9261 23.0967 20.5711C23.3335 20.0722 23.93 19.8598 24.4289 20.0966Z" fill="#52565F"/>
<path fill-rule="evenodd" clip-rule="evenodd" d="M20.0088 7.39114C19.6112 7.00779 19.5997 6.37473 19.983 5.97716C20.8073 5.12239 22.0943 5.00513 23.0892 5.21572C24.0996 5.42961 25.2411 6.07134 25.6632 7.26486C25.8474 7.78553 25.5746 8.35692 25.0539 8.54108C24.5332 8.72523 23.9619 8.45243 23.7777 7.93176C23.6726 7.63463 23.2961 7.30383 22.675 7.17236C22.0383 7.03759 21.5802 7.20214 21.4228 7.36541C21.0394 7.76297 20.4063 7.77449 20.0088 7.39114Z" fill="#52565F"/>
<path d="M8.35484 19C16 19 14 11 16 11C18 11 17 19 24.1048 19C29.0645 19 29.879 14.7381 30 12L31 11.3809V9H24.4677C20 9 19 10 16 10C13 10 11.9355 9 7.96774 9H1V11.5L2 12C2 15 3.06452 19 8.35484 19Z" fill="#52565F"/>
<path d="M9 9.99995L4 15.9999C4 15.9999 4.54592 16.6856 5 16.9999C5.35899 17.2485 6 17.4999 6 17.4999L11 10.4999C11 10.4999 10.6667 10.1482 10 9.99995C9.61879 9.91517 9 9.99995 9 9.99995Z" fill="#5F646F"/>
<path d="M25 10L20 16C20 16 20.5459 16.6856 21 17C21.359 17.2485 22 17.5 22 17.5L27 10H25Z" fill="#5F646F"/>
</svg>
