<svg width="32" height="32" viewBox="0 0 32 32" fill="none" xmlns="http://www.w3.org/2000/svg">
<rect x="1" y="1" width="30" height="30" rx="15" fill="#FFD663"/>
<path fill-rule="evenodd" clip-rule="evenodd" d="M1.07406 14.5C1.02508 14.9934 1 15.4938 1 16C1 24.2843 7.71573 31 16 31C24.2843 31 31 24.2843 31 16C31 15.4937 30.9749 14.9934 30.9259 14.5C30.1733 22.08 23.778 28 16 28C8.22198 28 1.82665 22.08 1.07406 14.5Z" fill="#FFD04C"/>
<path fill-rule="evenodd" clip-rule="evenodd" d="M11.6838 22.9487C12.2077 23.1233 12.774 22.8401 12.9487 22.3162C13.3511 21.109 14.4356 20 16 20C17.5644 20 18.6489 21.109 19.0513 22.3162C19.226 22.8401 19.7923 23.1233 20.3162 22.9487C20.8402 22.774 21.1233 22.2077 20.9487 21.6837C20.3511 19.8909 18.6461 18 16 18C13.3539 18 11.6489 19.8909 11.0513 21.6837C10.8767 22.2077 11.1598 22.774 11.6838 22.9487Z" fill="#52565F"/>
<circle cx="11" cy="13" r="2" fill="#52565F"/>
<circle cx="21" cy="13" r="2" fill="#52565F"/>
</svg>
