<svg width="11" height="22" viewBox="0 0 18 23" fill="none" xmlns="http://www.w3.org/2000/svg">
<path d="M2.03 22.24C1.53 22.24 1.12 22.11 0.8 21.85C0.48 21.57 0.29 21.23 0.23 20.83C0.19 20.41 0.33 19.99 0.65 19.57L6.89 11.23L0.98 3.31C0.66 2.87 0.52 2.45 0.56 2.05C0.6 1.63 0.78 1.29 1.1 1.03C1.42 0.749998 1.82 0.609998 2.3 0.609998C3.04 0.609998 3.71 1.02 4.31 1.84L9.08 8.44L13.85 1.84C14.45 1.02 15.13 0.609998 15.89 0.609998C16.39 0.609998 16.8 0.739998 17.12 0.999999C17.44 1.26 17.62 1.6 17.66 2.02C17.7 2.42 17.55 2.85 17.21 3.31L11.3 11.23L17.51 19.57C17.83 19.99 17.97 20.41 17.93 20.83C17.89 21.23 17.71 21.57 17.39 21.85C17.07 22.11 16.65 22.24 16.13 22.24C15.41 22.24 14.74 21.82 14.12 20.98L9.08 14.08L4.07 20.98C3.45 21.82 2.77 22.24 2.03 22.24Z" fill="black"/>
</svg>
